# xmcd
#
# Track frame offsets: 
#        150
#        21477
#        41174
#        60167
#        81271
#        104521
#        125145
#        149676
#        173769
#        196447
#        219606
#        235270
#
# Disc length: 3453 seconds
#
# Revision: 0
# Processed by: cddbd v1.5.2PL0 Copyright (c) Steve Scherf et al.
# Submitted via: ExactAudioCopy v1.3
#
DISCID=b60d7b0c
DTITLE=Carl Marshall - Love Brings Me Back To You
DYEAR=2015
DGENRE=Soul, Blues
TTITLE0=Cheating Town
TTITLE1=Sugar
TTITLE2=I Owe It All To The Blues
TTITLE3=The Walk
TTITLE4=I'm Tired Of Missing You
TTITLE5=Laughing And Stepping (Feat. Rue Davis)
TTITLE6=Love Brings Me Back To You
TTITLE7=Love Touch Up
TTITLE8=I Wanna Know (What Kind Of Love You Got)
TTITLE9=Ladies Know Your Worth (Remix)
TTITLE10=Wind It Up! (Single Remix)
TTITLE11=From The Church To The Motel
EXTD=
EXTT0=
EXTT1=
EXTT2=
EXTT3=
EXTT4=
EXTT5=
EXTT6=
EXTT7=
EXTT8=
EXTT9=
EXTT10=
EXTT11=
PLAYORDER=
